<svg xmlns="http://www.w3.org/2000/svg" version="1.1" xmlns:xlink="http://www.w3.org/1999/xlink" xmlns:svgjs="http://svgjs.dev/svgjs" width="1000" height="1000" viewBox="0 0 1000 1000"><rect width="1000" height="1000" fill="#ffffff"></rect><g transform="matrix(0.7,0,0,0.7,149.57605563665675,420.94764955480014)"><svg viewBox="0 0 396 90" data-background-color="#ea3c12" preserveAspectRatio="xMidYMid meet" height="227" width="1000" xmlns="http://www.w3.org/2000/svg" xmlns:xlink="http://www.w3.org/1999/xlink"><g id="tight-bounds" transform="matrix(1,0,0,1,0.24008861730862918,-0.22522630542488287)"><svg viewBox="0 0 395.52 90.4504526108498" height="90.4504526108498" width="395.52"><g><svg viewBox="0 0 395.52 90.4504526108498" height="90.4504526108498" width="395.52"><g><svg viewBox="0 0 395.52 90.4504526108498" height="90.4504526108498" width="395.52"><g id="textblocktransform"><svg viewBox="0 0 395.52 90.4504526108498" height="90.4504526108498" width="395.52" id="textblock"><g><svg viewBox="0 0 395.52 90.4504526108498" height="90.4504526108498" width="395.52"><path d="M394.594 19.4C392.735 10.011 387.435 7.401 387.435 7.401 371.165-2.269 350.86-0.185 332.619 1.205 300.414 1.261 268.339 3.326 236.208 4.434 168.767 4.603 100.749 1.824 33.643 8.678 27.339 10.781-6.54 9.091 1.121 20.602 3.129 25.39 10.456 30.704 10.232 35.098 11.236 35.868 12.631 34.103 13.226 35.211 15.309 38.196 18.711 36.788 21.501 38.553 17.614 43.266 20.403 47.191 23.062 51.303 18.377 52.373 12.371 51.866 9.675 55.415 9.396 57.988 7.89 57.499 6.235 57.387 5.026 57.312 2.59 57.593 2.999 58.401 4.394 61.161-1.594 62.757 2.162 65.461-0.422 68.39 3.948 70.925 3.353 74.099 3.278 74.737 3.687 75.282 4.338 75.432 7.22 76.239 3.018 77.817 3.464 79.525 33.029 91.205 65.104 83.131 95.394 88.501 103.259 84.745 97.346 89.834 100.489 89.045 102.943 88.125 104.728 91.937 107.499 89.778 107.927 89.158 107.276 87.693 108.8 87.975 109.6 88.125 110.307 88.088 110.418 87.224 110.586 85.928 109.117 86.736 108.726 86.06 112.947 82.642 111.906 90.773 115.866 90.435 115.68 89.44 114.528 88.013 116.889 88.2 119.232 86.773 119.306 85.59 121.389 88.801 121.463 89.496 121.835 89.984 122.43 90.322 128.938 86.83 135.409 91.562 142.233 89.984 146.417 88.257 150.433 90.923 154.672 90.266 156.16 89.74 157.666 88.801 159.098 90.379 176.632 90.717 195.319 89.308 211.943 90.435 256.364 88.332 303.835 91.299 350.674 88.52 361.719 87.449 373.192 85.928 383.958 84.708 383.958 84.708 392.679 81.365 392.679 66.344S394.538 53.199 394.817 41.238C395.096 29.277 396.398 28.789 394.538 19.4Z" opacity="1" fill="#000000" data-fill-palette-color="tertiary"></path><g transform="matrix(1,0,0,1,55.76832,26.230666666666668)"><svg width="283.98335999999995" viewBox="1.9500000476837158 -35.20000076293945 265.72998046875 35.54999923706055" height="37.98911927751646" data-palette-color="#ea3c12"><path d="M1.95-34.75L26.2-34.75 26.2-30.1 16.95-30.1 16.95 0 11.25 0 11.25-30.1 1.95-30.1 1.95-34.75ZM51.15-30.15L37.65-30.15 37.65-19.95 49.65-19.95 49.65-15.3 37.65-15.3 37.65-4.65 51.15-4.65 51.15 0 31.95 0 31.95-34.8 51.15-34.8 51.15-30.15ZM56.25-17.45Q56.25-22.55 58.62-26.6 61-30.65 65.07-32.93 69.15-35.2 74-35.2L74-35.2Q79.55-35.2 83.87-32.48 88.2-29.75 90.15-24.75L90.15-24.75 83.3-24.75Q81.95-27.5 79.55-28.85 77.15-30.2 74-30.2L74-30.2Q70.55-30.2 67.85-28.65 65.15-27.1 63.62-24.2 62.1-21.3 62.1-17.45L62.1-17.45Q62.1-13.6 63.62-10.7 65.15-7.8 67.85-6.23 70.55-4.65 74-4.65L74-4.65Q77.15-4.65 79.55-6 81.95-7.35 83.3-10.1L83.3-10.1 90.15-10.1Q88.2-5.1 83.87-2.4 79.55 0.3 74 0.3L74 0.3Q69.1 0.3 65.05-1.98 61-4.25 58.62-8.3 56.25-12.35 56.25-17.45L56.25-17.45ZM125.34-34.8L125.34 0 119.64 0 102.49-25.95 102.49 0 96.79 0 96.79-34.8 102.49-34.8 119.64-8.9 119.64-34.8 125.34-34.8ZM148.69 0.35Q143.84 0.35 139.77-1.93 135.69-4.2 133.32-8.28 130.94-12.35 130.94-17.45L130.94-17.45Q130.94-22.55 133.32-26.6 135.69-30.65 139.77-32.93 143.84-35.2 148.69-35.2L148.69-35.2Q153.59-35.2 157.67-32.93 161.74-30.65 164.09-26.6 166.44-22.55 166.44-17.45L166.44-17.45Q166.44-12.35 164.09-8.28 161.74-4.2 157.67-1.93 153.59 0.35 148.69 0.35L148.69 0.35ZM148.69-4.6Q152.14-4.6 154.84-6.18 157.54-7.75 159.07-10.68 160.59-13.6 160.59-17.45L160.59-17.45Q160.59-21.3 159.07-24.2 157.54-27.1 154.84-28.65 152.14-30.2 148.69-30.2L148.69-30.2Q145.24-30.2 142.54-28.65 139.84-27.1 138.32-24.2 136.79-21.3 136.79-17.45L136.79-17.45Q136.79-13.6 138.32-10.68 139.84-7.75 142.54-6.18 145.24-4.6 148.69-4.6L148.69-4.6ZM206.69-30.3L190.54-4.95 206.69-4.95 206.69 0 183.79 0 183.79-4.45 199.89-29.8 183.79-29.8 183.79-34.75 206.69-34.75 206.69-30.3ZM232.13-30.15L218.63-30.15 218.63-19.95 230.63-19.95 230.63-15.3 218.63-15.3 218.63-4.65 232.13-4.65 232.13 0 212.93 0 212.93-34.8 232.13-34.8 232.13-30.15ZM267.68-34.8L267.68 0 261.98 0 244.83-25.95 244.83 0 239.13 0 239.13-34.8 244.83-34.8 261.98-8.9 261.98-34.8 267.68-34.8Z" opacity="1" transform="matrix(1,0,0,1,0,0)" fill="#ffffff" class="undefined-text-0" data-fill-palette-color="quaternary" id="text-0"></path></svg></g></svg></g></svg></g></svg></g><g></g></svg></g><defs></defs></svg><rect width="395.52" height="90.4504526108498" fill="none" stroke="none" visibility="hidden"></rect></g></svg></g></svg>